#!OML:ASF F:\VICON\USERDATA\INSTALL\rory3\rory3.ASF
:FULLY-SPECIFIED
:DEGREES
287
root -4.88261 18.2628 -10.6365 -170.174 -31.4112 177.588
lowerback -8.86771 -0.701417 -2.99123
upperback -2.16974 -0.764808 -1.54042
thorax 2.7353 -0.459823 0.000748972
lowerneck -18.8083 0.770582 1.72297
upperneck 25.7342 0.181867 -0.909778
head 11.5148 -0.10864 -0.648862
rclavicle -1.89203e-014 -8.74653e-015
rhumerus -32.8627 10.3132 -92.5699
rradius 30.477
rwrist 3.79241
rhand -20.8811 10.5571
rfingers 7.12502
rthumb 5.48914 -19.3518
lclavicle -1.89203e-014 -8.74653e-015
lhumerus -35.8902 -15.8616 87.388
lradius 43.0796
lwrist 15.9103
lhand -11.4196 27.3291
lfingers 7.12502
lthumb 14.6163 56.794
rfemur -19.3925 -5.15689 11.7924
rtibia 51.2887
rfoot -14.1053 7.38521
rtoes -19.257
lfemur -25.3678 10.1723 -28.6318
ltibia 32.1695
lfoot -15.2715 1.80411
ltoes -9.48481
288
root -4.94232 18.2624 -10.6971 -170.176 -31.6709 177.548
lowerback -8.91903 -0.733742 -3.05231
upperback -2.12995 -0.797191 -1.5526
thorax 2.80626 -0.476746 0.0175766
lowerneck -18.7346 0.739935 1.63977
upperneck 25.6575 0.141179 -0.809813
head 11.4701 -0.120826 -0.60318
rclavicle -1.08661e-013 2.74323e-014
rhumerus -32.8482 10.4702 -92.5458
rradius 30.7774
rwrist 3.41226
rhand -20.9244 10.565
rfingers 7.12502
rthumb 5.44734 -19.345
lclavicle -1.08661e-013 2.74323e-014
lhumerus -35.7131 -15.9908 87.3815
lradius 43.421
lwrist 16.1892
lhand -11.0569 27.0217
lfingers 7.12502
lthumb 14.9657 56.461
rfemur -19.9092 -5.32916 11.8333
rtibia 50.7047
rfoot -14.7341 7.57151
rtoes -19.3646
lfemur -25.1403 10.0716 -28.6174
ltibia 32.4197
lfoot -15.6742 1.38133
ltoes -7.61522
289
root -4.99472 18.2558 -10.7521 -170.163 -31.9188 177.492
lowerback -8.89481 -0.763905 -3.17765
upperback -2.10452 -0.824933 -1.54562
thorax 2.82147 -0.491018 0.0920407
lowerneck -18.6878 0.687645 1.54311
upperneck 25.6049 0.0896142 -0.768503
head 11.4397 -0.147143 -0.57879
rclavicle 9.98427e-015 7.15625e-015
rhumerus -32.7995 10.5279 -92.455
rradius 31.0461
rwrist 3.30034
rhand -20.9284 10.462
rfingers 7.12502
rthumb 5.44352 -19.448
lclavicle 9.98427e-015 7.15625e-015
lhumerus -35.5754 -16.0841 87.4011
lradius 43.8024
lwrist 16.2575
lhand -11.0693 27.1736
lfingers 7.12502
lthumb 14.9537 56.6137
rfemur -20.4656 -5.34423 11.8814
rtibia 50.0619
rfoot -15.2462 7.87065
rtoes -18.4509
lfemur -24.9601 10.1899 -28.655
ltibia 32.684
lfoot -16.0071 0.910818
ltoes -7.33196
290
root -5.04191 18.2444 -10.8042 -170.212 -32.2069 177.501
lowerback -8.78223 -0.840441 -3.29328
upperback -2.09015 -0.919464 -1.50189
thorax 2.77868 -0.537145 0.19319
lowerneck -18.6604 0.699918 1.55083
upperneck 25.6094 0.1174 -0.814785
head 11.4364 -0.140249 -0.592978
rclavicle 1.48032e-014 2.34566e-014
rhumerus -32.6939 10.565 -92.4016
rradius 31.2558
rwrist 3.31462
rhand -20.7867 10.3875
rfingers 7.12502
rthumb 5.58026 -19.5191
lclavicle 1.48032e-014 2.34566e-014
lhumerus -35.4475 -16.0857 87.3716
lradius 44.1319
lwrist 16.4198
lhand -11.1743 27.1073
lfingers 7.12502
lthumb 14.8526 56.5549
rfemur -20.9932 -5.29135 12.0102
rtibia 49.3798
rfoot -15.5378 8.0497
rtoes -17.3383
lfemur -24.7732 10.1737 -28.6026
ltibia 32.9385
lfoot -16.3307 0.579024
ltoes -7.15602
291
root -5.09004 18.2343 -10.8561 -170.296 -32.5096 177.545
lowerback -8.61598 -0.921953 -3.37237
upperback -2.08214 -1.0264 -1.452
thorax 2.69999 -0.588458 0.280122
lowerneck -18.6887 0.740059 1.61415
upperneck 25.626 0.18179 -0.907824
head 11.4494 -0.116695 -0.628264
rclavicle 1.19608e-013 -6.75868e-015
rhumerus -32.5801 10.7771 -92.4186
rradius 31.4247
rwrist 3.12292
rhand -20.8012 10.4537
rfingers 7.12502
rthumb 5.56625 -19.4532
lclavicle 1.19608e-013 -6.75868e-015
lhumerus -35.3577 -15.987 87.3503
lradius 44.4839
lwrist 16.5646
lhand -11.2611 27.0436
lfingers 7.12502
lthumb 14.7689 56.4974
rfemur -21.4795 -5.26215 12.1494
rtibia 48.6723
rfoot -15.5419 8.25302
rtoes -14.9934
lfemur -24.5587 10.0063 -28.4979
ltibia 33.1797
lfoot -16.7295 0.388808
ltoes -7.04348
292
root -5.13778 18.2196 -10.9092 -170.391 -32.7694 177.623
lowerback -8.48156 -0.929769 -3.37003
upperback -2.0755 -1.04091 -1.43952
thorax 2.63301 -0.593811 0.292529
lowerneck -18.6812 0.711311 1.62401
upperneck 25.6036 0.145835 -0.925852
head 11.4388 -0.13322 -0.641643
rclavicle 7.83569e-014 2.26615e-014
rhumerus -32.5455 10.7763 -92.3936
rradius 31.6312
rwrist 2.85217
rhand -20.8672 10.4684
rfingers 7.12502
rthumb 5.50253 -19.4401
lclavicle 7.83569e-014 2.26615e-014
lhumerus -35.2762 -16.0471 87.3588
lradius 44.8707
lwrist 16.5652
lhand -11.2701 27.1697
lfingers 7.12502
lthumb 14.7603 56.6241
rfemur -21.9721 -5.21671 12.3305
rtibia 47.9598
rfoot -15.9027 8.50464
rtoes -14.0044
lfemur -24.3428 9.98939 -28.4148
ltibia 33.3715
lfoot -17.0881 0.319722
ltoes -8.00625
293
root -5.18147 18.2009 -10.9629 -170.485 -33.0826 177.755
lowerback -8.34521 -0.915691 -3.27271
upperback -2.10769 -1.0371 -1.46141
thorax 2.52202 -0.589789 0.218693
lowerneck -18.5033 0.648578 1.61447
upperneck 25.4634 0.0497226 -0.865119
head 11.349 -0.168143 -0.63055
rclavicle -7.33096e-014 -1.82882e-014
rhumerus -32.6004 10.664 -92.4078
rradius 31.8893
rwrist 2.75589
rhand -20.9329 10.4328
rfingers 7.12502
rthumb 5.4391 -19.4774
lclavicle -7.33096e-014 -1.82882e-014
lhumerus -35.2299 -16.1264 87.3079
lradius 45.1843
lwrist 16.451
lhand -11.0817 27.154
lfingers 7.12502
lthumb 14.9418 56.595
rfemur -22.4618 -5.02215 12.5532
rtibia 47.2507
rfoot -16.5611 8.78861
rtoes -14.0387
lfemur -24.1414 10.0903 -28.303
ltibia 33.4901
lfoot -17.4686 0.26163
ltoes -9.73765
294
root -5.22009 18.1862 -11.0116 -170.483 -33.5388 177.796
lowerback -8.19694 -0.967597 -3.28005
upperback -2.14478 -1.11364 -1.48965
thorax 2.4031 -0.6266 0.188915
lowerneck -18.3956 0.631054 1.66256
upperneck 25.4055 0.00456652 -0.836994
head 11.3053 -0.179885 -0.634421
rclavicle 6.39729e-014 -2.78299e-015
rhumerus -32.6249 10.6869 -92.5144
rradius 32.1964
rwrist 2.54297
rhand -20.9744 10.4258
rfingers 7.12502
rthumb 5.39905 -19.4854
lclavicle 6.39729e-014 -2.78299e-015
lhumerus -35.1327 -16.1984 87.2374
lradius 45.4298
lwrist 16.3215
lhand -10.9715 26.9578
lfingers 7.12502
lthumb 15.0479 56.3909
rfemur -22.9842 -4.64973 12.5802
rtibia 46.5529
rfoot -16.7372 9.41593
rtoes -10.3442
lfemur -23.9278 9.95819 -28.2303
ltibia 33.5434
lfoot -17.8184 0.165683
ltoes -10.713
295
root -5.26314 18.1794 -11.0626 -170.48 -33.9745 177.773
lowerback -8.10938 -1.03067 -3.32652
upperback -2.12338 -1.19504 -1.51839
thorax 2.3792 -0.666638 0.178382
lowerneck -18.3836 0.630024 1.74554
upperneck 25.3363 0.00188679 -0.898046
head 11.2768 -0.178324 -0.670165
rclavicle 4.4329e-014 -2.26615e-014
rhumerus -32.583 10.8066 -92.6009
rradius 32.4796
rwrist 2.28719
rhand -20.9164 10.5543
rfingers 7.12502
rthumb 5.45503 -19.3555
lclavicle 4.4329e-014 -2.26615e-014
lhumerus -35.0169 -16.3712 87.2053
lradius 45.8025
lwrist 16.6074
lhand -11.2561 26.9421
lfingers 7.12502
lthumb 14.7738 56.3955
rfemur -23.4683 -4.33221 12.5613
rtibia 45.8458
rfoot -16.6907 9.70514
rtoes -8.21423
lfemur -23.6292 9.72612 -28.1899
ltibia 33.5613
lfoot -18.1087 -0.00817441
ltoes -10.8711
296
root -5.31121 18.178 -11.1166 -170.501 -34.3385 177.829
lowerback -8.09718 -1.09836 -3.31629
upperback -2.10134 -1.28406 -1.48367
thorax 2.39838 -0.71017 0.1994
lowerneck -18.3747 0.655897 1.71152
upperneck 25.2686 0.0621981 -0.9177
head 11.2502 -0.154472 -0.661586
rclavicle -3.25634e-014 1.39149e-014
rhumerus -32.4988 11.1518 -92.6761
rradius 32.7054
rwrist 1.91895
rhand -20.8848 10.4354
rfingers 7.12502
rthumb 5.48555 -19.4736
lclavicle -3.25634e-014 1.39149e-014
lhumerus -34.9662 -16.3618 87.2078
lradius 46.2188
lwrist 16.8035
lhand -11.2168 27.1065
lfingers 7.12502
lthumb 14.8116 56.5571
rfemur -23.9685 -4.2007 12.6923
rtibia 45.0958
rfoot -17.0478 9.63596
rtoes -9.75788
lfemur -23.3641 9.49276 -28.087
ltibia 33.5626
lfoot -18.3611 -0.113696
ltoes -10.3636
297
root -5.35645 18.1684 -11.1689 -170.473 -34.6957 177.866
lowerback -8.07219 -1.15215 -3.33756
upperback -2.13729 -1.35751 -1.44222
thorax 2.35084 -0.746064 0.247693
lowerneck -18.2968 0.664715 1.65192
upperneck 25.2109 0.111625 -0.967265
head 11.2137 -0.143415 -0.661515
rclavicle -2.48108e-014 1.23246e-014
rhumerus -32.4736 11.492 -92.7853
rradius 32.9313
rwrist 1.41025
rhand -20.9035 10.1471
rfingers 7.12502
rthumb 5.4675 -19.7623
lclavicle -2.48108e-014 1.23246e-014
lhumerus -34.9581 -16.2979 87.2372
lradius 46.5017
lwrist 16.8424
lhand -10.9774 27.0763
lfingers 7.12502
lthumb 15.0423 56.5099
rfemur -24.504 -3.98903 12.8367
rtibia 44.2793
rfoot -17.7773 9.03138
rtoes -14.1415
lfemur -23.1609 9.22653 -28.0024
ltibia 33.5789
lfoot -18.7345 -0.109963
ltoes -10.468
